<svg width="284px" height="43px" viewBox="0 0 284 43" version="1.1" xmlns="http://www.w3.org/2000/svg" xmlns:xlink="http://www.w3.org/1999/xlink">
    <!-- Generator: Sketch 51.3 (57544) - http://www.bohemiancoding.com/sketch -->
    <desc>Created with Sketch.</desc>
    <defs></defs>
    <g id="Page-1" stroke="none" stroke-width="1" fill="none" fill-rule="evenodd">
        <g id="Creature---Website-Phase-1" transform="translate(-49.000000, -396.000000)" fill="#1A1919">
            <g id="Group-19" transform="translate(49.000000, 396.000000)">
                <path d="M86.6533,22.0918 C86.6533,14.2858 92.8333,7.9058 100.9893,7.9058 C107.7693,7.9058 112.4973,12.1098 113.6483,16.7378 L108.1193,18.5388 C107.4933,16.4118 105.4923,13.4348 100.9643,13.4348 C96.5103,13.4348 92.9083,16.8128 92.9083,21.9908 C92.9083,27.0948 96.3613,30.7478 101.0143,30.7478 C105.6933,30.7478 107.4193,27.6458 108.2193,25.5438 L113.7993,27.3458 C112.5723,31.4978 108.3443,36.3018 100.8893,36.3018 C92.8333,36.3018 86.6533,30.1478 86.6533,22.0918" id="Fill-1"></path>
                <path d="M130.231,14.4854 C125.553,14.4854 123.076,17.2374 123.076,21.9164 L123.076,35.8264 L116.971,35.8264 L116.971,8.4814 L122.951,8.4814 L122.951,12.6844 C124.602,9.7074 127.579,8.2314 130.457,8.2314 C130.682,8.2314 131.507,8.2814 131.958,8.3814 L131.958,14.6354 C131.457,14.5364 130.306,14.4854 130.231,14.4854" id="Fill-3"></path>
                <path d="M139.1909,19.3398 L153.5519,19.3398 C153.3519,15.4108 150.2239,13.1348 146.4459,13.1348 C142.6929,13.1348 139.7409,15.5868 139.1909,19.3398 M146.8969,31.0728 C150.1989,31.0728 153.0509,29.7728 154.1519,26.4698 L159.3059,28.0458 C157.7549,33.2998 152.3999,36.3268 146.9719,36.3268 C138.9159,36.3268 132.6359,30.2228 132.6359,22.1158 C132.6359,14.3358 138.4649,7.9058 146.3969,7.9058 C154.9279,7.9058 159.7559,13.8108 159.7559,22.0408 C159.7559,22.6668 159.7319,23.2918 159.6559,23.9178 L138.8659,23.9178 C139.0159,28.1208 142.8689,31.0728 146.8969,31.0728" id="Fill-5"></path>
                <path d="M179.5254,23.8672 L173.6204,23.8672 C171.3184,23.8672 168.3664,25.1182 168.3664,27.6952 C168.3664,29.9222 170.1434,31.4232 172.7194,31.4232 C176.8734,31.4232 179.5254,28.8712 179.5254,24.7432 L179.5254,23.8672 Z M179.7754,35.8262 C179.6254,35.1512 179.5254,33.0502 179.5254,32.0742 C177.5234,35.4012 174.0464,36.3022 171.4944,36.3022 C166.1404,36.3022 162.2624,32.9742 162.2624,28.2462 L162.2624,27.9452 C162.2624,21.5912 168.8674,19.5902 173.6464,19.5902 L177.0234,19.5902 C178.8744,19.5902 179.5754,18.6132 179.5754,17.2882 C179.5754,15.1112 177.7984,13.1092 174.1964,13.1092 C170.8684,13.1092 168.6674,15.0112 168.2164,17.6382 L162.6874,16.3872 C162.9124,14.0862 165.0144,10.6332 168.8174,8.9572 C170.3934,8.2562 172.3694,7.9062 174.3714,7.9062 C178.9744,7.9062 182.8024,9.5322 184.6294,13.5102 C185.3044,14.9612 185.5544,16.5372 185.5544,18.3882 L185.5544,31.4232 C185.5544,33.0992 185.6044,34.5512 185.7544,35.8262 L179.7754,35.8262 Z" id="Fill-7"></path>
                <path d="M198.9097,13.96 L198.9097,27.021 C198.9097,29.372 200.0857,30.548 203.1377,30.548 C203.6877,30.548 204.4387,30.497 205.6147,30.348 L205.6147,35.526 C203.9387,36.027 201.9867,36.077 201.2367,36.077 C195.8577,36.077 192.8297,34 192.8297,27.346 L192.8297,13.96 L187.5267,13.96 L187.5267,8.481 L192.8297,8.481 L192.8297,0 L198.9097,0 L198.9097,8.481 L205.8647,8.481 L205.8647,13.96 L198.9097,13.96 Z" id="Fill-9"></path>
                <path d="M222.0054,30.623 C225.8834,30.623 228.3354,27.82 228.3354,23.692 L228.3354,8.481 L234.4394,8.481 L234.4394,35.826 L228.4844,35.826 L228.4844,32.149 C225.8584,35.677 222.2804,36.402 220.1294,36.402 C213.2744,36.402 209.8714,31.498 209.8714,25.294 L209.8714,8.481 L215.9754,8.481 L215.9754,23.793 C215.9754,27.671 217.8014,30.623 222.0054,30.623" id="Fill-11"></path>
                <path d="M253.8081,14.4854 C249.1291,14.4854 246.6521,17.2374 246.6521,21.9164 L246.6521,35.8264 L240.5481,35.8264 L240.5481,8.4814 L246.5271,8.4814 L246.5271,12.6844 C248.1791,9.7074 251.1561,8.2314 254.0331,8.2314 C254.2581,8.2314 255.0841,8.2814 255.5341,8.3814 L255.5341,14.6354 C255.0341,14.5364 253.8831,14.4854 253.8081,14.4854" id="Fill-13"></path>
                <path d="M262.7676,19.3398 L277.1286,19.3398 C276.9286,15.4108 273.8006,13.1348 270.0226,13.1348 C266.2706,13.1348 263.3186,15.5868 262.7676,19.3398 M270.4736,31.0728 C273.7756,31.0728 276.6276,29.7728 277.7286,26.4698 L282.8826,28.0458 C281.3316,33.2998 275.9776,36.3268 270.5486,36.3268 C262.4926,36.3268 256.2126,30.2228 256.2126,22.1158 C256.2126,14.3358 262.0416,7.9058 269.9736,7.9058 C278.5046,7.9058 283.3326,13.8108 283.3326,22.0408 C283.3326,22.6668 283.3086,23.2918 283.2326,23.9178 L262.4426,23.9178 C262.5926,28.1208 266.4456,31.0728 270.4736,31.0728" id="Fill-15"></path>
                <path d="M63.8496,23.1934 L51.1326,35.8774 C50.7926,36.2154 50.3416,36.4024 49.8626,36.4024 L40.0476,36.4024 L52.0546,24.3954 C52.7026,23.7494 53.0586,22.8894 53.0586,21.9744 C53.0586,21.0594 52.7026,20.2004 52.0566,19.5554 L39.9616,7.4614 L49.8626,7.4614 C50.3416,7.4614 50.7926,7.6474 51.1326,7.9864 L63.8496,20.6704 C64.1866,21.0064 64.3726,21.4554 64.3726,21.9314 C64.3726,22.4084 64.1866,22.8564 63.8496,23.1934 Z M21.5166,36.4024 C21.0376,36.4024 20.5866,36.2154 20.2466,35.8774 L7.5296,23.1924 C7.1916,22.8564 7.0066,22.4084 7.0066,21.9314 C7.0066,21.4554 7.1926,21.0064 7.5296,20.6704 L20.2466,7.9864 C20.5866,7.6474 21.0376,7.4614 21.5166,7.4614 L31.4176,7.4614 L19.3246,19.5534 C18.6776,20.2004 18.3206,21.0594 18.3206,21.9744 C18.3206,22.8894 18.6776,23.7494 19.3236,24.3934 L31.3316,36.4024 L21.5166,36.4024 Z M35.6896,12.4454 C35.8276,12.4454 36.0296,12.4824 36.2056,12.6594 L45.0046,21.4584 C45.1816,21.6344 45.2186,21.8364 45.2186,21.9744 C45.2186,22.1124 45.1816,22.3144 45.0046,22.4914 L36.2056,31.2904 C36.0296,31.4664 35.8276,31.5044 35.6896,31.5044 C35.5516,31.5044 35.3496,31.4664 35.1736,31.2894 L26.3746,22.4914 C26.1976,22.3144 26.1606,22.1124 26.1606,21.9744 C26.1606,21.8364 26.1976,21.6344 26.3746,21.4584 L35.1726,12.6594 C35.3496,12.4824 35.5516,12.4454 35.6896,12.4454 Z M68.2506,16.2564 L55.5336,3.5734 C54.0176,2.0604 52.0036,1.2284 49.8626,1.2284 L21.5166,1.2284 C19.3756,1.2284 17.3616,2.0604 15.8456,3.5734 L3.1286,16.2564 C1.6096,17.7714 0.7736,19.7874 0.7736,21.9314 C0.7736,24.0764 1.6096,26.0914 3.1286,27.6064 L15.8456,40.2904 C17.3616,41.8014 19.3756,42.6344 21.5166,42.6344 L49.8626,42.6344 C52.0036,42.6344 54.0176,41.8014 55.5336,40.2904 L68.2506,27.6064 C69.7696,26.0914 70.6056,24.0764 70.6056,21.9314 C70.6056,19.7874 69.7696,17.7714 68.2506,16.2564 Z" id="Fill-17"></path>
            </g>
        </g>
    </g>
</svg>
