<?xml version="1.0" standalone="no"?>
<!DOCTYPE svg PUBLIC "-//W3C//DTD SVG 20010904//EN"
 "http://www.w3.org/TR/2001/REC-SVG-20010904/DTD/svg10.dtd">
<svg version="1.0" xmlns="http://www.w3.org/2000/svg"
 width="300.000000pt" height="300.000000pt" viewBox="0 0 300.000000 300.000000"
 preserveAspectRatio="xMidYMid meet">
<metadata>
Created by potrace 1.11, written by Peter Selinger 2001-2013
</metadata>
<g transform="translate(0.000000,300.000000) scale(0.100000,-0.100000)"
fill="#000000" stroke="none">
<path d="M883 2255 c-23 -7 -59 -26 -80 -43 -70 -55 -542 -531 -558 -563 -50
-96 -51 -204 -2 -293 33 -60 541 -562 602 -594 l50 -27 605 0 605 0 50 25 c37
18 122 96 322 295 309 308 317 318 317 445 0 126 -8 138 -312 440 -147 146
-275 271 -284 278 -9 7 -40 22 -69 32 -50 19 -84 20 -628 19 -445 0 -586 -3
-618 -14z m227 -450 c-245 -245 -267 -275 -249 -339 10 -33 9 -32 277 -300
105 -106 192 -195 192 -198 0 -3 -85 -5 -189 -4 -187 1 -190 1 -217 26 -14 14
-130 128 -255 254 -191 190 -229 233 -229 257 0 23 38 66 229 257 126 126 243
240 259 254 29 24 32 25 222 25 l192 0 -232 -232z m1196 -15 c135 -135 250
-255 255 -268 6 -16 5 -31 -5 -50 -15 -28 -486 -501 -502 -504 -5 0 -94 -2
-197 -3 l-189 -2 74 74 c40 42 139 141 221 222 81 80 155 157 164 170 23 36
27 85 8 121 -9 17 -117 132 -241 256 -123 123 -224 225 -224 228 0 2 88 3 195
2 l195 -1 246 -245z m-616 -115 l174 -175 -25 -26 c-114 -122 -325 -324 -337
-324 -19 0 -352 329 -352 348 0 19 331 350 350 351 9 1 94 -78 190 -174z"/>
</g>
</svg>
